 <svg version="1.0" xmlns="http://www.w3.org/2000/svg" width="700.000000pt" height="700.000000pt" viewBox="0 0 700.000000 700.000000" preserveAspectRatio="xMidYMid meet">
<metadata>
Created by potrace 1.12, written by Peter Selinger 2001-2015
</metadata>
<g transform="translate(0.000000,700.000000) scale(0.100000,-0.100000)" fill="#000000" stroke="none">
<path d="M1470 6980 c0 -5 9 -10 20 -10 11 0 20 5 20 10 0 6 -9 10 -20 10 -11
0 -20 -4 -20 -10z"></path>
<path d="M1640 6980 c0 -5 9 -10 20 -10 11 0 20 5 20 10 0 6 -9 10 -20 10 -11
0 -20 -4 -20 -10z"></path>
<path d="M1337 6950 c-187 -63 -341 -197 -433 -376 -74 -141 -103 -223 -130
-354 -25 -122 -34 -340 -14 -340 6 0 10 45 10 115 0 195 43 363 141 555 53
105 106 172 195 250 68 59 208 133 288 151 31 7 56 16 56 21 0 13 -20 9 -113
-22z"></path>
<path d="M1700 6973 c0 -4 33 -18 74 -30 95 -29 232 -119 312 -206 78 -82 99
-138 91 -240 -4 -64 -12 -86 -91 -242 -47 -93 -86 -174 -86 -178 0 -4 5 -7 10
-7 6 0 10 6 10 13 0 6 14 37 30 67 153 279 175 362 129 486 -48 128 -277 302
-446 339 -18 3 -33 3 -33 -2z"></path>
<path d="M1990 6025 c0 -14 5 -25 10 -25 6 0 10 11 10 25 0 14 -4 25 -10 25
-5 0 -10 -11 -10 -25z"></path>
<path d="M2000 5974 c0 -16 46 -60 78 -76 48 -23 70 -22 143 3 73 25 126 21
175 -13 48 -35 75 -74 81 -118 10 -71 -4 -109 -64 -172 -59 -61 -82 -76 -418
-284 -217 -134 -285 -188 -323 -263 -38 -72 -66 -201 -43 -201 4 0 11 23 14
52 11 86 38 148 93 207 48 52 194 149 537 356 189 114 262 233 214 348 -27 63
-121 127 -188 127 -9 0 -42 -9 -75 -21 -37 -13 -74 -19 -101 -16 -45 5 -103
40 -103 63 0 8 -4 14 -10 14 -5 0 -10 -3 -10 -6z"></path>
<path d="M760 5825 c0 -19 5 -35 10 -35 6 0 10 16 10 35 0 19 -4 35 -10 35 -5
0 -10 -16 -10 -35z"></path>
<path d="M770 5757 c0 -7 9 -75 20 -152 11 -77 20 -182 20 -232 0 -55 4 -93
10 -93 17 0 11 156 -12 328 -12 89 -25 162 -30 162 -4 0 -8 -6 -8 -13z"></path>
<path d="M796 5198 c-5 -56 -3 -78 8 -67 10 10 18 129 9 129 -6 0 -13 -28 -17
-62z"></path>
<path d="M3870 5113 c0 -6 87 -13 228 -17 125 -3 244 -9 265 -12 22 -4 37 -2
37 4 0 15 -64 21 -307 28 -147 4 -223 3 -223 -3z"></path>
<path d="M762 4978 c-24 -147 -62 -449 -62 -485 0 -13 4 -23 8 -23 5 0 14 55
21 123 12 116 51 399 66 480 4 22 3 37 -3 37 -5 0 -19 -60 -30 -132z"></path>
<path d="M3680 5094 c-315 -48 -680 -194 -970 -387 -388 -260 -785 -697 -995
-1097 -16 -30 -42 -74 -58 -97 -15 -24 -24 -43 -18 -43 13 0 39 40 112 170
214 385 613 817 972 1053 248 164 487 270 767 342 100 26 272 55 328 55 17 0
32 5 32 10 0 13 -54 11 -170 -6z"></path>
<path d="M4420 5083 c0 -5 51 -18 113 -30 303 -59 680 -210 917 -368 359 -239
610 -599 734 -1056 28 -103 66 -329 66 -396 0 -24 5 -43 10 -43 15 0 12 61
-10 205 -63 406 -218 748 -465 1026 -263 296 -722 537 -1237 648 -106 23 -128
25 -128 14z"></path>
<path d="M1610 4785 c0 -25 5 -45 10 -45 6 0 10 20 10 45 0 25 -4 45 -10 45
-5 0 -10 -20 -10 -45z"></path>
<path d="M1600 4665 c0 -30 5 -55 10 -55 6 0 10 25 10 55 0 30 -4 55 -10 55
-5 0 -10 -25 -10 -55z"></path>
<path d="M1590 4525 c0 -37 4 -65 10 -65 6 0 10 28 10 65 0 37 -4 65 -10 65
-6 0 -10 -28 -10 -65z"></path>
<path d="M3063 4455 c-194 -60 -333 -261 -321 -463 8 -131 65 -224 173 -280
41 -21 64 -26 126 -26 68 -1 84 3 151 37 181 89 283 281 256 479 -26 191 -206
310 -385 253z"></path>
<path d="M685 4325 c-7 -111 -4 -148 9 -134 9 10 17 259 8 259 -6 0 -13 -55
-17 -125z"></path>
<path d="M1580 4340 c0 -53 4 -90 10 -90 6 0 10 37 10 90 0 53 -4 90 -10 90
-6 0 -10 -37 -10 -90z"></path>
<path d="M1570 3865 c0 -223 4 -345 10 -345 6 0 10 122 10 345 0 223 -4 345
-10 345 -6 0 -10 -122 -10 -345z"></path>
<path d="M670 3805 c0 -230 4 -355 10 -355 6 0 10 125 10 355 0 230 -4 355
-10 355 -6 0 -10 -125 -10 -355z"></path>
<path d="M4555 4083 c-53 -22 -85 -43 -136 -93 -145 -143 -188 -336 -110 -495
58 -118 156 -173 290 -162 269 20 470 358 358 601 -52 113 -133 167 -257 173
-64 3 -86 -1 -145 -24z"></path>
<path d="M680 3345 c0 -37 4 -65 10 -65 6 0 10 28 10 65 0 37 -4 65 -10 65 -6
0 -10 -28 -10 -65z"></path>
<path d="M3002 3360 c-218 -30 -351 -150 -409 -370 -27 -102 -22 -280 10 -403
38 -144 94 -243 197 -346 162 -164 359 -266 623 -323 87 -19 134 -22 322 -22
193 0 230 2 305 21 319 81 572 279 648 508 31 92 36 177 17 270 -38 182 -146
298 -345 369 -96 35 -188 40 -370 22 -194 -20 -287 -20 -370 0 -82 19 -121 42
-245 145 -55 45 -122 92 -150 105 -59 26 -146 35 -233 24z m198 -36 c43 -14
85 -43 245 -169 39 -30 95 -65 125 -77 78 -30 225 -34 437 -14 95 10 194 14
220 11 191 -26 368 -137 429 -268 150 -329 -68 -682 -516 -839 -201 -70 -528
-76 -772 -14 -248 63 -467 191 -599 351 -175 211 -224 568 -109 801 67 136
184 211 362 233 72 9 115 5 178 -15z"></path>
<path d="M690 3210 c0 -27 5 -50 10 -50 6 0 10 23 10 50 0 28 -4 50 -10 50 -5
0 -10 -22 -10 -50z"></path>
<path d="M6260 2985 c0 -117 4 -185 10 -185 6 0 10 68 10 185 0 117 -4 185
-10 185 -6 0 -10 -68 -10 -185z"></path>
<path d="M705 3043 c7 -98 10 -111 21 -101 9 10 -8 198 -19 198 -6 0 -7 -35
-2 -97z"></path>
<path d="M720 2903 c-1 -56 34 -303 43 -303 6 0 7 18 3 46 -3 26 -11 98 -18
160 -6 63 -15 114 -20 114 -4 0 -8 -8 -8 -17z"></path>
<path d="M6250 2730 c0 -27 5 -50 10 -50 6 0 10 23 10 50 0 28 -4 50 -10 50
-5 0 -10 -22 -10 -50z"></path>
<path d="M6232 2557 c-17 -140 -61 -348 -117 -552 -49 -178 -67 -285 -46 -285
6 0 11 17 11 43 0 23 9 74 19 112 88 334 112 436 130 540 28 166 36 245 24
245 -5 0 -15 -46 -21 -103z"></path>
<path d="M760 2561 c0 -43 61 -377 99 -546 72 -315 163 -596 306 -945 34 -85
70 -176 79 -202 42 -116 175 -263 337 -371 98 -65 308 -168 449 -220 101 -38
379 -120 443 -131 70 -13 37 10 -40 28 -117 27 -355 102 -466 147 -270 109
-483 245 -603 387 -61 71 -86 116 -120 212 -12 36 -47 124 -77 195 -118 279
-225 613 -293 914 -36 159 -94 483 -94 527 0 13 -4 24 -10 24 -5 0 -10 -9 -10
-19z"></path>
<path d="M6060 1642 c0 -84 46 -192 146 -344 88 -133 104 -169 104 -249 0
-218 -168 -431 -476 -603 -276 -155 -763 -303 -1173 -357 -50 -7 -91 -16 -91
-21 0 -12 25 -10 161 13 770 130 1328 388 1517 702 82 137 104 283 58 384 -13
28 -51 91 -84 140 -97 145 -142 248 -142 331 0 17 -4 32 -10 32 -5 0 -10 -13
-10 -28z"></path>
<path d="M2530 141 c0 -5 73 -23 163 -40 203 -39 267 -47 267 -34 0 6 -28 14
-62 17 -34 4 -130 21 -213 37 -175 34 -155 31 -155 20z"></path>
<path d="M2980 62 c0 -11 148 -27 157 -18 11 11 0 13 -79 21 -49 4 -78 3 -78
-3z"></path>
<path d="M4490 60 c0 -5 14 -10 30 -10 17 0 30 5 30 10 0 6 -13 10 -30 10 -16
0 -30 -4 -30 -10z"></path>
<path d="M4390 50 c0 -5 18 -10 40 -10 22 0 40 5 40 10 0 6 -18 10 -40 10 -22
0 -40 -4 -40 -10z"></path>
<path d="M3160 40 c0 -5 23 -10 50 -10 28 0 50 5 50 10 0 6 -22 10 -50 10 -27
0 -50 -4 -50 -10z"></path>
<path d="M4280 40 c0 -5 20 -10 45 -10 25 0 45 5 45 10 0 6 -20 10 -45 10 -25
0 -45 -4 -45 -10z"></path>
<path d="M3280 30 c0 -6 28 -10 65 -10 37 0 65 4 65 10 0 6 -28 10 -65 10 -37
0 -65 -4 -65 -10z"></path>
<path d="M4053 33 c-45 -3 -73 -8 -73 -15 0 -8 29 -9 98 -5 53 4 116 7 140 7
23 0 42 5 42 10 0 10 -46 10 -207 3z"></path>
<path d="M3430 20 c0 -6 28 -10 65 -10 37 0 65 4 65 10 0 6 -28 10 -65 10 -37
0 -65 -4 -65 -10z"></path>
</g>
</svg>