<svg id="burst" xmlns="http://www.w3.org/2000/svg" width="469.11" height="468.02" viewBox="0 0 469.11 468.02"><defs><style>.cls-1{fill:#fff;}</style></defs><title>star</title><polygon class="cls-1" points="234.56 468.02 242.92 293.74 297.99 459.3 259.02 289.23 356.71 433.79 273.3 280.54 406.38 393.38 284.72 268.32 443.3 341.08 292.41 253.47 464.74 280.75 295.81 237.1 469.11 216.87 294.67 220.42 456.08 154.18 289.07 204.66 426.63 97.33 279.43 191 382.93 50.54 266.46 180.45 328.22 17.27 251.12 173.79 266.57 0 234.56 171.51 202.54 0 217.99 173.79 140.89 17.27 202.65 180.45 86.18 50.54 189.68 191 42.48 97.33 180.04 204.66 13.03 154.18 174.44 220.42 0 216.87 173.3 237.1 4.37 280.75 176.7 253.47 25.81 341.08 184.39 268.32 62.73 393.38 195.81 280.54 112.4 433.79 210.09 289.23 171.13 459.3 226.19 293.74 234.56 468.02"/></svg>